<svg width="200" height="100" viewBox="0 0 200 100" xmlns="http://www.w3.org/2000/svg">
  <defs>
    <clipPath id="clipV">
      <path d="M10,90 L40,10 L70,90 Z"/>
    </clipPath>
    <clipPath id="clipI">
      <rect x="80" y="10" width="20" height="80"/>
    </clipPath>
  </defs>

  <!-- Background -->
  <rect width="100%" height="100%" fill="url(#gradient)"/>
  <linearGradient id="gradient" x1="0" x2="0" y1="0" y2="1">
    <stop offset="0%" stop-color="#223356"/>
    <stop offset="100%" stop-color="#2a4f6d"/>
  </linearGradient>

  <!-- V shape with palm tree -->
  <g clip-path="url(#clipV)">
    <rect x="0" y="0" width="100" height="100" fill="white"/>
    <!-- Example Palm Tree Path (simplified) -->
    <path d="M40,60 C45,30 35,30 40,60 C30,45 50,45 40,60 Z" fill="#223356"/>
  </g>
  
  <!-- I shape with palm tree -->
  <g clip-path="url(#clipI)">
    <rect x="80" y="0" width="40" height="100" fill="white"/>
    <!-- Example Palm Tree Path (simplified) -->
    <path d="M90,60 C95,30 85,30 90,60 C80,45 100,45 90,60 Z" fill="#223356"/>
  </g>

  <!-- Outline for V and I -->
  <path d="M10,90 L40,10 L70,90 Z" fill="none" stroke="white" stroke-width="2"/>
  <rect x="80" y="10" width="20" height="80" fill="none" stroke="white" stroke-width="2"/>
</svg>
